<?xml version="1.0" encoding="UTF-8"?>
<svg id="Layer_1" xmlns="http://www.w3.org/2000/svg" version="1.1" viewBox="0 0 206.5 48.3">
  <!-- Generator: Adobe Illustrator 30.1.0, SVG Export Plug-In . SVG Version: 2.1.1 Build 136)  -->
  <defs>
    <style>
      .st0 {
        fill: #fff;
      }
    </style>
  </defs>
  <g id="_">
    <path class="st0" d="M182.5,43.4c-.3-.7-.9-1.3-1.6-1.7-.8-.3-1.6-.3-2.4,0-.4.2-.7.4-1,.7s-.5.6-.7,1c-.3.8-.3,1.6,0,2.4.2.4.4.7.7,1s.6.5,1,.7c.8.3,1.6.3,2.4,0,.4-.2.7-.4,1-.7s.5-.6.7-1c.2-.8.2-1.6-.1-2.4h0ZM182,45.6c-.1.3-.3.6-.5.8s-.5.4-.8.5-.7.2-1,.2-.7-.1-1-.2c-.6-.3-1.1-.8-1.4-1.4-.1-.3-.2-.7-.2-1s.1-.7.2-1c.1-.3.3-.6.6-.8.2-.2.5-.4.8-.5s.7-.2,1-.2.7.1,1,.2c.3.1.6.3.8.5s.4.5.5.8.2.7.2,1c0,.4-.1.8-.2,1.1ZM180.2,44.8c.2,0,.4-.1.6-.3.2-.2.3-.4.2-.7,0-.3-.1-.6-.3-.8-.3-.2-.6-.3-1-.3h-1.4v3.6h.6v-1.5h.5l.9,1.5h.7l-.8-1.5ZM179.9,44.3h-.8v-1h1.1c.1,0,.1.1.2.2.1.1.1.2.1.3s0,.2-.1.3-.1.1-.2.2h-.3Z"/>
  </g>
  <g id="Logo">
    <path class="st0" d="M20.2,24l-1.1,2.3c-.4.8-1,1-1.5.7-2.1-1.1-4.5-1.8-6.9-1.9-2.3,0-4,.8-4,2.7,0,5,14.4,2.3,14.4,12.1,0,5.6-4.9,8.1-10.4,8.1-3.7,0-7.3-1.1-10.3-3.3C0,44.4-.1,43.9.2,43.5l1.2-2.3c.2-.5.8-.7,1.3-.5.1,0,.1.1.1.1,2.4,1.6,5.2,2.6,8.2,2.6,2.5,0,4.4-.9,4.4-2.9,0-5.6-14.3-2.5-14.2-12.2,0-5.5,4.8-7.9,10-7.9,3.1,0,6.1.8,8.7,2.3.4.3.6.8.3,1.3M30.3,40.6c0-.3.1-.5.3-.7l3.4-3.6c.4-.4,1-.4,1.4-.1l.2.2,7,10.9c.2.3.5.5.8.5h4.6c.6,0,1-.4,1-1,0-.2-.1-.4-.2-.6l-9.4-14.4c-.3-.4-.2-.9.1-1.3l7.9-8.2c.4-.4.4-1,0-1.4-.2-.2-.5-.3-.8-.3h-3.9c-.3,0-.5.1-.7.3l-10.4,10.6c-.3.3-.8.3-1.1,0-.1-.1-.2-.3-.2-.5V11c0-.6-.4-1-1-1h-3.9c-.6,0-1,.4-1,1v35.8c0,.6.4,1,1,1h3.8c.6,0,1-.4,1-1l.1-6.2M58.5,12.9c0-1.9-1.5-3.4-3.4-3.4s-3.4,1.5-3.4,3.4h0c0,1.9,1.5,3.4,3.4,3.4s3.4-1.5,3.4-3.4h0M52.2,46.8c0,.6.4,1,1,1h3.8c.6,0,1-.4,1-1v-25.1c0-.6-.4-1-1-1h-3.8c-.6,0-1,.4-1,1v25.1M62.8,46.8c0,.6.4,1,1,1h3.8c.6,0,1-.4,1-1V11c0-.6-.4-1-1-1h-3.8c-.6,0-1,.4-1,1v35.8M74.2,46.8c0,.6.4,1,1,1h3.8c.6,0,1-.4,1-1V11c0-.6-.4-1-1-1h-3.8c-.6,0-1,.4-1,1v35.8M104.4,24c.2-.5.1-1-.4-1.3-2.7-1.5-5.7-2.3-8.7-2.3-5.2,0-10,2.3-10,7.9,0,9.8,14.2,6.7,14.2,12.2,0,2-1.9,2.9-4.4,2.9-2.9-.1-5.7-1-8.1-2.6-.5-.3-1.1-.2-1.4.2l-.1.1-1.2,2.3c-.2.4-.1.9.3,1.2,3,2.2,6.6,3.3,10.3,3.2,5.5,0,10.4-2.5,10.4-8.1,0-9.9-14.4-7.1-14.4-12.1,0-1.9,1.7-2.7,4-2.7,2.4.1,4.7.8,6.9,1.9.5.3,1.1.1,1.4-.4v-.1l1.2-2.3M136.3,34.3c0-8.2-5.8-13.8-14.1-13.8s-14.2,5.5-14.2,13.7,5.8,13.8,14.2,13.8,14.1-5.6,14.1-13.7M113.9,34.2c0-5.2,3.4-8.8,8.3-8.8s8.3,3.6,8.3,8.8-3.5,8.8-8.3,8.8-8.3-3.5-8.3-8.8M147.8,18.4c-.2-1.9,1.2-3.5,3.1-3.7h.6c1,0,2,.3,2.8.7.5.3,1.1.1,1.4-.4v-.1l1.3-2.6c.2-.5.1-1-.4-1.3-1.6-.9-3.5-1.4-5.4-1.4-4.7,0-9.3,3-9.3,9.3v1.6c0,.6-.4,1-1,1h-1.6c-.6,0-1,.4-1,1v2.5c0,.6.4,1,1,1h1.6c.6,0,1,.4,1,1v19.8c0,.6.4,1,1,1h3.8c.6,0,1-.4,1-1v-19.7c0-.6.4-1,1-1h5.1c.6,0,1-.4,1-1v-2.4c0-.6-.4-1-1-1h-5.1c-.6,0-1-.4-1-1l.1-2.3M173.7,42.7c-.2-.5-.7-.8-1.3-.7h-.1c-1,.4-2,.7-3.1.7-1.8,0-2.9-.9-2.9-3.7v-12c0-.6.4-1,1-1h6c.6,0,1-.4,1-1v-2.4c0-.6-.4-1-1-1h-6c-.6,0-1-.4-1-1v-5.4c0-.6-.4-1-1-1h-3.8c-.6,0-1,.4-1,1v5.4c0,.6-.4,1-1,1h-1.8c-.6,0-1,.4-1,1v2.4c0,.6.4,1,1,1h1.8c.6,0,1,.4,1,1v13.1c0,5.6,3.5,7.9,7.6,7.9,2.1,0,4.1-.6,5.9-1.6.5-.2.7-.8.5-1.3l-.8-2.4ZM174.7,1.3v12.8c0,.7.6,1.3,1.3,1.3.2,0,.5-.1.7-.2l11.1-6.4c.6-.4.9-1.2.5-1.8-.1-.2-.3-.4-.5-.5L176.6.1c-.6-.4-1.4-.1-1.8.5-.1.3-.1.5-.1.7h0ZM192.8,1.3v12.8c0,.7.6,1.3,1.3,1.3.2,0,.5-.1.7-.2l11.1-6.4c.6-.4.9-1.2.5-1.8-.1-.2-.3-.4-.5-.5L194.7.1c-.6-.4-1.4-.1-1.8.5-.1.3-.2.5-.1.7h0ZM183.8,17v12.8c0,.7.6,1.3,1.3,1.3.2,0,.5-.1.7-.2l11.1-6.4c.6-.4.9-1.2.5-1.8-.1-.2-.3-.4-.5-.5l-11.1-6.4c-.6-.4-1.4-.2-1.8.4-.2.3-.3.5-.2.8h0Z"/>
  </g>
</svg>