<?xml version="1.0" encoding="UTF-8"?>
<svg id="Layer_1" xmlns="http://www.w3.org/2000/svg" version="1.1" viewBox="0 0 161.36 38">
  <!-- Generator: Adobe Illustrator 30.1.0, SVG Export Plug-In . SVG Version: 2.1.1 Build 136)  -->
  <defs>
    <style>
      .st0 {
        fill: #fff;
      }
    </style>
  </defs>
  <g id="Group_2154">
    <path id="Path_471" class="st0" d="M0,34.08l3.08-2.14c1.16,1.61,3.06,2.51,5.03,2.4,2.27,0,3.3-.75,3.3-2,0-1.51-1.38-1.74-4.54-2.63-2.76-.75-5.53-2.05-5.53-5.75s2.99-5.53,6.69-5.53c2.48-.06,4.85.97,6.51,2.81l-2.63,2.59c-.96-1.16-2.38-1.83-3.88-1.83-1.69,0-2.63.62-2.63,1.74,0,1.43,1.15,1.74,4.1,2.5s6.15,1.92,6.15,5.88c0,3.21-1.96,5.84-7.26,5.84-4.28,0-7.13-1.87-8.38-3.88"/>
    <path id="Path_472" class="st0" d="M17.66,30.08v-11h4.44v10.64c0,2.64,1.23,4.18,3.82,4.18,2.9,0,4.7-1.81,4.7-4.8v-10.03h4.44v18.47h-4.44l.07-2.6c-1.4,2-3.74,3.14-6.18,2.99-4.04,0-6.86-2.86-6.86-7.87"/>
    <path id="Path_473" class="st0" d="M38.48,19.09h4.44l-.09,3.17c.97-2.17,3.12-3.56,5.5-3.56,2.38-.13,4.57,1.29,5.41,3.52,1.35-2.2,3.75-3.53,6.33-3.52,4.35,0,6.95,2.9,6.95,7.61v11.26h-4.44v-10.82c0-2.55-.92-3.96-3.47-3.96s-4.13,1.58-4.13,4.66v10.11h-4.44v-10.82c0-2.55-.88-3.96-3.43-3.96s-4.18,1.58-4.18,4.66v10.11h-4.44v-18.47Z"/>
    <path id="Path_474" class="st0" d="M80.96,28.32c-.19-5.5,4.12-10.11,9.62-10.3s10.11,4.12,10.3,9.62-4.12,10.11-9.62,10.3c-.11,0-.21,0-.32,0-5.33.18-9.8-3.99-9.98-9.32,0-.1,0-.2,0-.3M96.31,28.32c0-3.39-2.07-5.76-5.36-5.76s-5.41,2.38-5.41,5.76,2.11,5.8,5.41,5.8,5.36-2.42,5.36-5.8"/>
    <path id="Path_475" class="st0" d="M123.47,22.39c-1.86-.05-3.65.76-4.83,2.2l-2.55-2.59c1.62-1.93,3.82-3.3,7.74-3.3,4.44,0,7.78,2.5,7.78,7.96v10.91h-4.44l.1-2.09c-1.42,1.7-3.56,2.62-5.78,2.48-3.65,0-6.64-1.72-6.64-5.85,0-3.83,3.08-5.5,7.25-5.54h5.06c0-2.95-1.32-4.18-3.7-4.18M122.42,29.64c-1.93,0-3.21.7-3.21,2.33s1.23,2.42,3.52,2.42c2.59,0,4.45-1.27,4.45-3.29v-1.45h-4.75Z"/>
    <rect id="Rectangle_1708" class="st0" x="134.92" y="10.35" width="4.44" height="27.2"/>
    <path id="Path_476" class="st0" d="M79.71,38h-3.52c-3.48,0-5.85-1.76-5.85-6.69V13.06h4.45v6.03h4.92v3.74h-4.92v8.18c0,2.11.7,2.72,1.85,2.72h3.08v4.27Z"/>
    <path id="Path_477" class="st0" d="M112.72,38h-3.52c-3.47,0-5.85-1.76-5.85-6.69V13.06h4.44v6.03h4.93v3.74h-4.93v8.18c0,2.11.7,2.72,1.85,2.72h3.08v4.27Z"/>
    <path id="Path_478" class="st0" d="M144.99,2.81v4.2l2.8,2.8V1.41c0-.77-.63-1.4-1.4-1.41h-8.4l2.82,2.81h4.19Z"/>
    <path id="Path_479" class="st0" d="M158.56,7.33v4.2l2.8,2.8V5.93c0-.78-.63-1.41-1.41-1.41h-8.41l2.81,2.81h4.2Z"/>
    <path id="Path_480" class="st0" d="M150.67,15.76v4.2l2.8,2.8v-8.41c0-.77-.63-1.4-1.41-1.4h-8.4l2.82,2.81h4.2Z"/>
    <path id="Path_481" class="st0" d="M140.58,35.37c0-.29.06-.58.17-.85.22-.53.64-.94,1.17-1.17.54-.23,1.16-.23,1.7,0,.26.11.5.27.7.47.2.2.36.44.47.7.23.54.23,1.16,0,1.7-.22.53-.64.94-1.17,1.17-.54.23-1.16.23-1.7,0-.26-.11-.5-.27-.7-.47-.2-.2-.36-.44-.47-.7-.12-.27-.18-.56-.17-.85M140.97,35.36c0,.24.05.48.14.7.09.21.22.41.39.58.17.16.36.3.58.39.45.19.95.19,1.4,0,.44-.18.78-.53.96-.96.19-.45.19-.95,0-1.4-.09-.22-.22-.41-.39-.58-.17-.16-.36-.29-.58-.39-.45-.19-.95-.19-1.4,0-.43.18-.78.53-.96.96-.09.22-.14.46-.14.7M141.93,34.09h.97c.24-.02.48.05.67.2.15.15.23.35.21.56.01.18-.05.36-.17.5-.12.11-.27.18-.42.2l.65,1.06h-.48l-.63-1.02h-.34v1.02h-.46v-2.51ZM142.39,35.18h.34c.07,0,.14,0,.21,0,.07,0,.13-.02.19-.04.06-.02.1-.06.14-.1.04-.06.06-.13.05-.19,0-.07-.02-.14-.05-.19-.04-.05-.08-.09-.14-.11-.06-.02-.13-.04-.19-.04-.07,0-.14,0-.21,0h-.34v.7Z"/>
  </g>
</svg>